<?xml version="1.0" encoding="UTF-8" standalone="no"?>
<svg
   xmlns:dc="http://purl.org/dc/elements/1.1/"
   xmlns:cc="http://creativecommons.org/ns#"
   xmlns:rdf="http://www.w3.org/1999/02/22-rdf-syntax-ns#"
   xmlns:svg="http://www.w3.org/2000/svg"
   xmlns="http://www.w3.org/2000/svg"
   xmlns:sodipodi="http://sodipodi.sourceforge.net/DTD/sodipodi-0.dtd"
   xmlns:inkscape="http://www.inkscape.org/namespaces/inkscape"
   sodipodi:docname="pic.svg"
   inkscape:version="1.0 (4035a4fb49, 2020-05-01)"
   id="svg8"
   version="1.1"
   viewBox="0 0 210 297"
   height="297mm"
   width="210mm">
  <defs
     id="defs2" />
  <sodipodi:namedview
     inkscape:window-maximized="0"
     inkscape:window-y="211"
     inkscape:window-x="2001"
     inkscape:window-height="1502"
     inkscape:window-width="1785"
     showgrid="false"
     inkscape:document-rotation="0"
     inkscape:current-layer="layer1"
     inkscape:document-units="mm"
     inkscape:cy="648.61074"
     inkscape:cx="219.08724"
     inkscape:zoom="22.4"
     inkscape:pageshadow="2"
     inkscape:pageopacity="0.0"
     borderopacity="1.0"
     bordercolor="#666666"
     pagecolor="#ffffff"
     id="base" />
  <metadata
     id="metadata5">
    <rdf:RDF>
      <cc:Work
         rdf:about="">
        <dc:format>image/svg+xml</dc:format>
        <dc:type
           rdf:resource="http://purl.org/dc/dcmitype/StillImage" />
        <dc:title></dc:title>
      </cc:Work>
    </rdf:RDF>
  </metadata>
  <g
     id="layer1"
     inkscape:groupmode="layer"
     inkscape:label="Layer 1">
    <path
       id="path833"
       d="M 63.900906,67.286509 C 61.096768,77.173491 50.376584,37.263863 51.636244,58.999445 52.895904,80.735023 67.451678,76.330034 63.96098,99.129931 60.470285,121.92983 47.349454,89.5997 47.657805,87.854305"
       style="fill:none;stroke:#000000;stroke-width:0.264583px;stroke-linecap:butt;stroke-linejoin:miter;stroke-opacity:1" />
    <path
       id="path835"
       d="m 72.043406,68.667007 c 0.843295,-11.156272 0.843295,-16.290234 0.843295,-16.290234 l -5.302694,7.593333 11.513555,0.08113"
       style="fill:none;stroke:#000000;stroke-width:0.264583px;stroke-linecap:butt;stroke-linejoin:miter;stroke-opacity:1" />
    <path
       id="path837"
       d="m 81.682814,65.257944 c 0,0 0.18774,-12.340389 4.299802,-12.272841 4.112059,0.06755 6.230101,8.301485 6.380469,11.173309 0.150371,2.871825 6.304433,2.684325 7.724935,-2.491023 1.4205,-5.175348 1.45206,-9.518406 1.45206,-9.518406"
       style="fill:none;stroke:#000000;stroke-width:0.264583px;stroke-linecap:butt;stroke-linejoin:miter;stroke-opacity:1" />
    <path
       id="path839"
       d="M 86.235277,66.101827 C 97.35563,53.353459 97.35563,53.353459 97.35563,53.353459"
       style="fill:none;stroke:#000000;stroke-width:0.264583px;stroke-linecap:butt;stroke-linejoin:miter;stroke-opacity:1" />
    <path
       id="path841"
       d="m 73.431611,102.0595 c 4.469132,-1.52185 11.498744,2.62494 10.327073,5.20409 -1.171672,2.57915 -2.113198,5.59155 -6.060125,9.17305 -3.946924,3.5815 -8.187713,3.03994 -5.945417,2.04173 2.242293,-0.99821 -2.025949,-1.28473 6.788851,0.36347"
       style="fill:none;stroke:#000000;stroke-width:0.264583px;stroke-linecap:butt;stroke-linejoin:miter;stroke-opacity:1" />
    <path
       id="path843"
       d="m 88.019683,118.07726 c 2.955845,-9.64442 -0.263367,-19.832334 5.888159,-12.9261 6.151528,6.90623 -0.4279,14.79293 7.131718,13.6462 7.55962,-1.14674 7.8962,-16.48665 7.8962,-16.48665"
       style="fill:none;stroke:#000000;stroke-width:0.264583px;stroke-linecap:butt;stroke-linejoin:miter;stroke-opacity:1" />
    <path
       d="m 60.25789,168.10856 c -0.303773,0.1051 -0.617609,0.17729 -0.930325,0.24992 -0.259281,0.0582 -0.518641,0.116 -0.777489,0.1761 0,0 -0.07818,0.0597 -0.07818,0.0597 v 0 c 0.263091,-0.0664 0.527023,-0.12946 0.792122,-0.18741 0.300533,-0.0676 0.601517,-0.1349 0.896872,-0.22291 0,0 0.097,-0.0754 0.097,-0.0754 z"
       id="path857"
       style="fill:none;fill-opacity:0.960784;stroke:none;stroke-width:0.7;stroke-linejoin:bevel;stroke-dasharray:0.7, 1.39999999999999991;stroke-opacity:0.760098" />
    <path
       d="m 59.00458,167.89541 c 0.0032,-0.0643 0.0016,-0.12853 -0.0199,-0.19002 -0.0077,-0.022 -0.01799,-0.0429 -0.02701,-0.0643 -0.03448,-0.0586 -0.04783,-0.087 -0.09318,-0.13975 -0.06374,-0.0741 -0.143589,-0.13374 -0.230092,-0.17887 -0.02782,-0.0145 -0.05736,-0.0255 -0.08604,-0.0382 -0.02814,-0.008 -0.05568,-0.0191 -0.08443,-0.0251 -0.08449,-0.0175 -0.172974,-0.0113 -0.254921,0.0155 -0.09164,0.0299 -0.167526,0.0862 -0.24988,0.13563 -0.02125,0.0195 -0.04409,0.0374 -0.06371,0.0585 -0.05605,0.0604 -0.09482,0.13253 -0.108175,0.2143 -0.01058,0.0649 -0.0044,0.10272 -5e-5,0.16756 0.0084,0.0739 0.03014,0.14481 0.05213,0.21547 0,0 0.09946,-0.0547 0.09946,-0.0547 v 0 c -0.02334,-0.0691 -0.04602,-0.13843 -0.05372,-0.21144 -0.0039,-0.0663 -0.0099,-0.0984 0.0021,-0.16454 0.01458,-0.0796 0.0539,-0.15005 0.109649,-0.20813 0.01974,-0.0206 0.04266,-0.0378 0.06399,-0.0567 -0.0064,0.002 -0.02522,0.009 -0.01916,0.006 0.0263,-0.0127 0.05243,-0.0262 0.08004,-0.0358 0.08044,-0.0279 0.168106,-0.0358 0.251884,-0.0202 0.02872,0.005 0.05634,0.0155 0.08451,0.0233 0.02862,0.0122 0.05808,0.0226 0.08584,0.0367 0.08591,0.0436 0.164148,0.10223 0.226227,0.17615 0.04485,0.0534 0.05587,0.0795 0.08895,0.13895 0.0081,0.0213 0.01762,0.0422 0.02439,0.064 0.01926,0.0619 0.01894,0.12668 0.01016,0.19026 0,0 0.110789,-0.0549 0.110789,-0.0549 z"
       id="path859"
       style="fill:none;fill-opacity:0.960784;stroke:none;stroke-width:0.7;stroke-linejoin:bevel;stroke-dasharray:0.7, 1.4;stroke-opacity:0.760098" />
    <path
       d="m 58.102679,168.25709 c 0.04134,-0.0244 0.08311,-0.048 0.12401,-0.0731 0.01066,-0.007 0.02037,-0.0145 0.03057,-0.0217 0.01863,-0.0132 0.105016,-0.0747 0.11566,-0.0821 0.0975,-0.0681 0.09971,-0.0686 0.206616,-0.13955 0.28026,-0.1838 0.568243,-0.35659 0.837113,-0.55725 0.05798,-0.0433 0.113972,-0.0891 0.170957,-0.13371 0.136835,-0.11572 0.274977,-0.23489 0.378786,-0.38272 0.04775,-0.068 0.09066,-0.14025 0.0943,-0.22621 0.0016,-0.0364 -0.01183,-0.072 -0.01775,-0.10796 -0.02297,-0.0352 -0.03968,-0.0754 -0.06893,-0.10548 -0.08006,-0.0824 -0.216088,-0.1536 -0.317802,-0.19594 -0.148013,-0.0616 -0.342315,-0.11419 -0.497919,-0.14522 -0.09495,-0.0189 -0.191284,-0.0301 -0.286925,-0.0452 -0.308274,-0.0235 -0.28493,-0.0286 -0.592259,-0.0249 -0.08649,0.001 -0.172903,0.006 -0.259355,0.009 0,0 -0.06275,0.046 -0.06275,0.046 v 0 c 0.08796,-0.004 0.175828,-0.0107 0.263861,-0.0125 0.295838,-0.006 0.295074,0.001 0.59088,0.0246 0.09458,0.0155 0.18991,0.0271 0.283745,0.0466 0.157305,0.0328 0.338976,0.0845 0.487045,0.15019 0.101322,0.045 0.225232,0.11486 0.302654,0.19946 0.02736,0.0299 0.04284,0.0688 0.06425,0.10323 0.0056,0.0346 0.01823,0.0688 0.0168,0.10377 -0.0034,0.0823 -0.04399,0.15338 -0.0892,0.219 -0.100399,0.14575 -0.235519,0.26289 -0.369292,0.3765 -0.05674,0.0443 -0.112472,0.09 -0.170214,0.13301 -0.272836,0.20326 -0.565621,0.37729 -0.850739,0.56225 -0.09672,0.0633 -0.192558,0.12748 -0.287729,0.19308 -0.01725,0.0119 -0.03452,0.0238 -0.05185,0.0356 -0.01109,0.008 -0.04539,0.0284 -0.03338,0.0224 0.02925,-0.0145 0.05685,-0.0321 0.08528,-0.0481 0,0 -0.09645,0.0772 -0.09645,0.0772 z"
       id="path861"
       style="fill:none;fill-opacity:0.960784;stroke:none;stroke-width:0.7;stroke-linejoin:bevel;stroke-dasharray:0.7, 1.4;stroke-opacity:0.760098" />
    <path
       d="m 54.64765,168.32358 c -0.0011,-0.002 -0.0021,-0.004 -0.0034,-0.005 -0.01812,-0.0244 -0.04459,-0.0438 -0.06975,-0.0601 -0.01127,-0.007 -0.02302,-0.0138 -0.03451,-0.0208 -0.03723,-0.0203 -0.07654,-0.0366 -0.116927,-0.0495 -0.02103,-0.007 -0.04119,-0.0122 -0.06307,-0.0151 -0.0084,-0.001 -0.01685,-0.001 -0.02529,-0.002 -0.02864,0.002 -0.01482,5e-5 -0.0415,0.007 0,0 -0.02193,0.0168 -0.02193,0.0168 v 0 c 0.02675,-0.007 0.01283,-0.005 0.04178,-0.008 0.0086,2.7e-4 0.01722,2e-5 0.0258,8e-4 0.02204,0.002 0.04318,0.007 0.06437,0.0137 0.02574,0.008 0.05393,0.0181 0.07826,0.0294 0.01304,0.006 0.02553,0.0131 0.03831,0.0197 0.01117,0.007 0.02265,0.0137 0.03354,0.0212 0.01865,0.0128 0.03109,0.0229 0.04655,0.0387 0.0082,0.008 0.01601,0.0178 0.02096,0.0285 0,0 0.02685,-0.0152 0.02685,-0.0152 z"
       id="path883"
       style="fill:none;fill-opacity:0.960784;stroke:#f31d93;stroke-width:0;stroke-linejoin:bevel;stroke-miterlimit:4;stroke-dasharray:none;stroke-dashoffset:0;stroke-opacity:0.760098" />
    <path
       d="m 53.413469,167.78376 c -1.19e-4,-0.0403 -0.0044,-0.08 -0.01101,-0.1197 -0.01109,-0.0602 -0.02876,-0.11908 -0.05242,-0.17552 -0.019,-0.0453 -0.03072,-0.0663 -0.05306,-0.11015 -0.02537,-0.0463 -0.05378,-0.0909 -0.08554,-0.13302 -0.0013,-0.002 -0.03623,-0.0469 -0.04262,-0.0499 -0.01085,-0.005 -0.02376,-0.003 -0.03565,-0.005 -0.01328,0.003 -0.02701,0.005 -0.03984,0.01 -0.01397,0.005 -0.02725,0.0122 -0.0401,0.0198 -0.06255,0.0367 -0.09452,0.0505 -0.137731,0.0953 -0.02503,0.026 -0.02981,0.0359 -0.04958,0.0654 -0.006,0.0127 -0.01267,0.025 -0.01786,0.038 -0.01283,0.0323 -0.01984,0.0617 -0.02617,0.096 -0.0064,0.0348 -0.01347,0.0906 -0.01601,0.12546 -0.0016,0.023 -0.0019,0.0461 -0.003,0.0692 -0.0011,0.15658 0.02775,0.31096 0.05395,0.46468 0.02349,0.13316 0.04748,0.26615 0.06424,0.40035 0.009,0.0752 0.0164,0.15072 0.01937,0.22644 0.0016,0.0389 0.0016,0.083 0.0019,0.12174 -5.3e-4,0.15096 -0.01453,0.30139 -0.02927,0.45149 -0.01177,0.12781 -0.02921,0.25486 -0.0529,0.38098 -0.0073,0.0352 -0.01527,0.0705 -0.02655,0.10471 -0.003,0.009 -0.01072,0.0302 -0.01572,0.0396 -0.0024,0.004 -0.0055,0.008 -0.0082,0.0125 -0.003,0.003 -0.0057,0.006 -0.009,0.008 -0.003,0.002 -0.01286,0.007 -0.0097,0.005 0.0209,-0.013 0.04322,-0.0238 0.06306,-0.0384 0.0036,-0.003 -0.0089,0.002 -0.01339,0.002 -0.01299,2.6e-4 -0.02066,-0.003 -0.03334,-0.006 -0.03842,-0.012 -0.07472,-0.0317 -0.105268,-0.058 -0.0066,-0.006 -0.01265,-0.0121 -0.01897,-0.0181 -0.03171,-0.0359 -0.05696,-0.0772 -0.07404,-0.122 -0.0033,-0.009 -0.0058,-0.0173 -0.0087,-0.0259 -0.01714,-0.0495 -0.02048,-0.10102 -0.01902,-0.15293 0.0026,-0.0533 0.01683,-0.10496 0.02903,-0.15661 0.0062,-0.0219 0.0032,-0.0115 0.0091,-0.0311 0,0 -0.07767,0.0369 -0.07767,0.0369 v 0 c -0.0049,0.0193 -0.0024,0.009 -0.0076,0.0308 -0.01114,0.0522 -0.02524,0.10417 -0.02758,0.15773 -0.0013,0.0529 0.0027,0.10518 0.02061,0.15547 0.01979,0.0568 0.04478,0.10564 0.08461,0.15141 0.0065,0.006 0.01262,0.013 0.01939,0.0189 0.03079,0.0271 0.0674,0.0478 0.105902,0.0616 0.0086,0.003 0.03991,0.0126 0.04882,0.009 0.03669,-0.0169 0.07729,-0.0309 0.102315,-0.0632 0.02564,-0.0484 0.03245,-0.10424 0.04385,-0.15706 0.02074,-0.1257 0.03572,-0.25214 0.04752,-0.37899 0.01476,-0.15081 0.02901,-0.30186 0.03153,-0.45348 1.14e-4,-0.0456 5.29e-4,-0.0774 -0.0011,-0.12261 -0.0027,-0.0759 -0.01056,-0.15144 -0.02008,-0.22671 -0.01762,-0.13382 -0.0434,-0.26622 -0.06748,-0.39899 -0.02664,-0.15338 -0.05474,-0.30769 -0.05158,-0.46406 0.0013,-0.023 0.0019,-0.0461 0.0038,-0.069 0.0063,-0.0735 0.01804,-0.1526 0.04725,-0.2209 0.0054,-0.0127 0.01241,-0.0247 0.01863,-0.037 0.01979,-0.0286 0.02476,-0.0385 0.04972,-0.0634 0.01021,-0.0102 0.03229,-0.0143 0.03245,-0.0287 1.37e-4,-0.0118 -0.04053,0.0227 -0.03229,0.0143 0.01598,-0.0163 0.05487,-0.0256 0.07571,-0.032 0.01056,1.5e-4 0.0218,-0.003 0.03163,5.3e-4 0.0068,0.003 0.04303,0.0455 0.04462,0.0474 0.03312,0.0406 0.06211,0.0845 0.08739,0.13039 0.0092,0.0182 0.01894,0.0362 0.02764,0.0547 0.03449,0.0734 0.0597,0.15101 0.07175,0.23133 0.0052,0.04 0.0088,0.0803 0.0063,0.12071 0,0 0.07803,-0.0398 0.07803,-0.0398 z"
       id="path889"
       style="fill:none;fill-opacity:0.960784;stroke:#f31d93;stroke-width:0.1;stroke-linejoin:bevel;stroke-miterlimit:4;stroke-dasharray:none;stroke-dashoffset:0;stroke-opacity:0.760098" />
    <path
       d="m 53.85839,167.58995 c 0.0066,-0.0405 0.0084,-0.0816 0.01016,-0.12249 0.0019,-0.0692 0.0011,-0.13837 0.0011,-0.20755 -2.44e-4,-0.0716 0.0019,-0.14328 -0.0031,-0.21477 -0.0033,-0.0133 -5.29e-4,-0.0429 -0.01243,-0.0535 -0.009,-0.008 -0.0195,-0.005 -0.02876,8e-4 -0.03114,0.0182 -0.061,0.0386 -0.09151,0.0579 -0.05078,0.0519 -0.09168,0.11187 -0.128717,0.17395 -0.02724,0.055 -0.06101,0.10828 -0.07855,0.16749 2.35e-4,0.005 -0.0011,0.01 7.94e-4,0.0137 0.0083,0.0189 0.03857,0.0162 0.05419,0.0159 0.02188,-2.7e-4 0.04682,-0.003 0.06847,-0.004 0.05882,-0.006 0.117536,-0.0128 0.175932,-0.0219 0.02909,-0.006 0.05854,-0.009 0.08796,-0.0117 0,0 0.06656,-0.0494 0.06656,-0.0494 v 0 c -0.02892,0.003 -0.05791,0.005 -0.08662,0.0101 -0.05895,0.0103 -0.118216,0.0188 -0.177829,0.0242 -0.02967,0.002 -0.05982,0.005 -0.08962,0.004 -0.0026,-1.2e-4 -0.01924,8e-5 -0.02228,-0.006 -0.0016,-0.003 -5.29e-4,-0.007 -5.29e-4,-0.0105 0.01627,-0.0578 0.0495,-0.11101 0.07657,-0.16419 0.03753,-0.0619 0.0785,-0.12257 0.13189,-0.17216 -0.01781,0.009 -0.03516,0.0189 -0.05341,0.0269 -1.04e-4,4e-5 0.01558,-0.0135 0.02077,-0.011 0.01042,0.005 0.01106,0.0406 0.01331,0.0486 0.0059,0.071 0.0046,0.14216 0.0046,0.21329 -2.35e-4,0.0695 -5.29e-4,0.13896 -0.0035,0.20837 -0.0021,0.0413 -0.0042,0.0829 -0.01386,0.12328 0,0 0.07861,-0.0385 0.07861,-0.0385 z"
       id="path891"
       style="fill:none;fill-opacity:0.960784;stroke:#f31d93;stroke-width:0.1;stroke-linejoin:bevel;stroke-miterlimit:4;stroke-dasharray:none;stroke-dashoffset:0;stroke-opacity:0.760098" />
    <path
       d="m 54.057441,167.6706 c 0.02191,-0.0737 0.05351,-0.14424 0.08411,-0.21461 0.02862,-0.0633 0.06172,-0.1244 0.09546,-0.18508 0.006,-0.0108 0.04093,-0.0738 0.05087,-0.0875 0.0061,-0.008 0.01413,-0.0152 0.02122,-0.0228 -0.01765,0.0115 -0.03829,0.0193 -0.05295,0.0344 -0.0038,0.004 0.0113,7.9e-4 0.01603,0.004 0.0062,0.004 0.01124,0.009 0.01574,0.0147 0.02101,0.0262 0.02773,0.0536 0.03576,0.0852 0.0099,0.0636 -5.29e-4,0.12755 -0.0089,0.19064 -0.0021,0.018 -0.0049,0.0364 0.0097,0.0502 0.01368,0.013 0.03244,0.0142 0.05,0.0159 0.01818,-2.4e-4 0.03745,-0.002 0.05374,-0.0107 0.07698,-0.0435 0.08205,-0.041 0.125905,-0.0921 0.04194,-0.0527 0.07655,-0.11057 0.109545,-0.16911 0,0 -0.07644,0.0342 -0.07644,0.0342 v 0 c -0.03192,0.0587 -0.06664,0.11621 -0.110048,0.1673 -0.0064,0.007 -0.01249,0.0142 -0.01923,0.0208 -0.0058,0.006 -0.02598,0.0188 -0.01839,0.016 0.01969,-0.007 0.03716,-0.0197 0.05551,-0.0299 0.0053,-0.003 -0.01061,0.006 -0.01627,0.008 -0.01336,0.005 -0.02096,0.005 -0.03494,0.006 -0.01511,-5.3e-4 -0.03265,-1.7e-4 -0.04534,-0.0102 -0.01341,-0.0106 -0.0093,-0.029 -0.0085,-0.0435 0.0069,-0.0639 0.01691,-0.12855 0.0061,-0.1926 -0.0029,-0.0114 -0.0049,-0.0231 -0.0085,-0.0343 -0.0078,-0.0238 -0.02365,-0.0588 -0.04486,-0.0742 -0.0058,-0.004 -0.0132,-0.0111 -0.01995,-0.009 -0.0322,0.0123 -0.0601,0.0338 -0.09015,0.0507 -0.0061,0.008 -0.01299,0.0149 -0.01836,0.0232 -0.0076,0.0118 -0.04301,0.0784 -0.04717,0.0862 -0.03286,0.0613 -0.06584,0.12249 -0.0951,0.18558 -0.033,0.0726 -0.06631,0.14529 -0.09383,0.2202 0,0 0.07932,-0.0375 0.07932,-0.0375 z"
       id="path893"
       style="fill:none;fill-opacity:0.960784;stroke:#f31d93;stroke-width:0.1;stroke-linejoin:bevel;stroke-miterlimit:4;stroke-dasharray:none;stroke-dashoffset:0;stroke-opacity:0.760098" />
    <path
       d="m 54.294619,167.54455 c 0.04624,-0.0539 0.08761,-0.11154 0.127156,-0.17043 0.02749,-0.0414 0.01426,-0.0213 0.03972,-0.0605 0,0 -0.07553,0.0332 -0.07553,0.0332 v 0 c -0.0245,0.0387 -0.01169,0.0188 -0.03848,0.0597 -0.0405,0.0601 -0.0833,0.11874 -0.132755,0.17189 0,0 0.07989,-0.0339 0.07989,-0.0339 z"
       id="path895"
       style="fill:none;fill-opacity:0.960784;stroke:#f31d93;stroke-width:0.1;stroke-linejoin:bevel;stroke-miterlimit:4;stroke-dasharray:none;stroke-dashoffset:0;stroke-opacity:0.760098" />
    <path
       d="m 53.364526,169.60709 c 0.0084,-0.0231 0.01937,-0.0453 0.03364,-0.0654 0.004,-0.006 0.0078,-0.0115 0.01267,-0.0163 0.0043,-0.004 0.0098,-0.007 0.01476,-0.0109 -0.01894,0.0125 -0.04119,0.0209 -0.05681,0.0374 -0.0042,0.004 0.01249,7.9e-4 0.01805,0.003 0.0076,0.004 0.01442,0.009 0.02045,0.0148 0.03175,0.0309 0.04077,0.065 0.054,0.1057 0.01421,0.0714 0.01249,0.1449 -0.01447,0.21327 -0.01508,0.0383 -0.02453,0.0481 -0.04714,0.0806 -0.01942,0.0212 -0.02577,0.0303 -0.0478,0.0472 -0.0062,0.005 -0.02648,0.0168 -0.01974,0.0128 0.133612,-0.0796 0.06884,-0.0322 0.04749,-0.0338 -0.0024,-1.9e-4 -0.0045,-0.002 -0.0067,-0.003 -0.0085,-0.0114 -0.0027,-0.0243 0.0074,-0.0328 0.0034,-0.003 0.0149,-0.009 0.01119,-0.007 -0.01963,0.0122 -0.03928,0.0245 -0.05893,0.0367 0.03181,-0.007 0.06206,0.007 0.09121,0.018 0.08132,0.0315 -0.01244,-0.004 0.07717,0.0296 0.05517,0.019 0.02822,0.01 0.08081,0.0274 0,0 0.06717,-0.0457 0.06717,-0.0457 v 0 c -0.0531,-0.0166 -0.02606,-0.008 -0.08104,-0.0268 -0.06174,-0.0238 -0.01871,-0.007 -0.07529,-0.0307 -0.02349,-0.01 -0.04851,-0.0224 -0.07436,-0.025 -0.006,-5.3e-4 -0.01214,1.8e-4 -0.0182,2.7e-4 -0.01064,0.006 -0.124828,0.0427 -0.106071,0.0932 0.0013,0.004 0.0041,0.007 0.0061,0.0101 0.0033,0.002 0.006,0.005 0.0098,0.007 0.0041,0.001 0.0089,0.002 0.01281,5.3e-4 0.03024,-0.0145 0.05907,-0.0318 0.08802,-0.0487 0.0255,-0.0149 0.04442,-0.0391 0.06289,-0.0614 0.02135,-0.0332 0.03034,-0.0435 0.04446,-0.0821 0.02566,-0.0702 0.0269,-0.14519 0.01339,-0.21799 -0.0047,-0.0154 -0.0083,-0.0311 -0.01405,-0.046 -0.01193,-0.0309 -0.03115,-0.0659 -0.06045,-0.084 -0.0062,-0.004 -0.01355,-0.01 -0.02037,-0.008 -0.03185,0.0113 -0.06,0.0311 -0.09001,0.0466 -0.0045,0.004 -0.0096,0.008 -0.0136,0.0126 -0.02101,0.024 -0.03519,0.0568 -0.04735,0.0859 0,0 0.07892,-0.0378 0.07892,-0.0378 z"
       id="path897"
       style="fill:none;fill-opacity:0.960784;stroke:#f31d93;stroke-width:0.1;stroke-linejoin:bevel;stroke-miterlimit:4;stroke-dasharray:none;stroke-dashoffset:0;stroke-opacity:0.760098" />
    <path
       d="m 53.804634,169.89197 c 0.01177,-0.0681 0.04306,-0.1305 0.07501,-0.19103 0.0048,-0.009 0.03512,-0.0634 0.04288,-0.074 0.0055,-0.007 0.02729,-0.0246 0.01915,-0.0201 -0.01897,0.0104 -0.04341,0.0186 -0.05233,0.0383 -0.0044,0.01 0.01974,0.008 0.02839,0.0146 0.0132,0.009 0.02453,0.0212 0.03678,0.0318 0.04016,0.0381 0.07489,0.0813 0.112572,0.12174 0.01879,0.0201 0.03683,0.0402 0.06104,0.054 0.0095,0.005 0.02027,0.008 0.03039,0.0123 0.01177,-5.3e-4 0.02376,0.001 0.03528,-0.001 0.01267,-0.003 0.025,-0.008 0.03626,-0.0139 0.07582,-0.0433 0.09262,-0.0471 0.134937,-0.10138 0.0241,-0.0309 0.03196,-0.0474 0.05127,-0.0811 0.0204,-0.038 0.037,-0.078 0.04994,-0.11914 0,0 -0.07686,0.0365 -0.07686,0.0365 v 0 c -0.01085,0.0401 -0.02619,0.0788 -0.0462,0.11523 -0.01934,0.033 -0.02733,0.0497 -0.05197,0.0795 -0.01,0.0121 -0.03457,0.0187 -0.03222,0.0342 0.0019,0.0125 0.02659,-0.0236 0.03522,-0.0144 0.01588,0.017 -0.07481,0.0168 -0.06702,0.0197 -0.01,-0.003 -0.02053,-0.005 -0.02994,-0.0101 -0.02474,-0.0125 -0.04335,-0.0316 -0.06249,-0.0511 -0.03883,-0.0396 -0.07364,-0.083 -0.112434,-0.12265 -0.01177,-0.0115 -0.02278,-0.0239 -0.03534,-0.0346 -0.0092,-0.008 -0.01791,-0.0233 -0.02981,-0.0209 -0.09542,0.019 -0.111196,0.0679 -0.149847,0.13947 -0.03304,0.063 -0.06512,0.12743 -0.08138,0.19714 0,0 0.0787,-0.0387 0.0787,-0.0387 z"
       id="path899"
       style="fill:none;fill-opacity:0.960784;stroke:#f31d93;stroke-width:0.1;stroke-linejoin:bevel;stroke-miterlimit:4;stroke-dasharray:none;stroke-dashoffset:0;stroke-opacity:0.760098" />
    <path
       d="m 54.100748,169.86627 c 0.02196,-0.062 0.04458,-0.12383 0.06606,-0.18604 0.01527,-0.0437 0.03043,-0.0874 0.04548,-0.13118 0,0 -0.07351,0.0345 -0.07351,0.0345 v 0 c -0.01405,0.0437 -0.02843,0.0872 -0.04403,0.13034 -0.02302,0.0636 -0.04669,0.12696 -0.07333,0.18912 0,0 0.07933,-0.0368 0.07933,-0.0368 z"
       id="path901"
       style="fill:none;fill-opacity:0.960784;stroke:#f31d93;stroke-width:0.1;stroke-linejoin:bevel;stroke-miterlimit:4;stroke-dasharray:none;stroke-dashoffset:0;stroke-opacity:0.760098" />
    <path
       id="path925"
       d="m 55.969196,167.20857 c -0.781394,-0.0126 -0.781394,-0.0126 -0.781394,-0.0126 l 0.01656,2.79461 1.008671,0.0766"
       style="fill:none;stroke:#000000;stroke-width:0.264583px;stroke-linecap:butt;stroke-linejoin:miter;stroke-opacity:1" />
    <path
       d="m 56.47999,168.86065 c 0.0127,-0.0768 0.03754,-0.15033 0.06675,-0.22217 0.05945,-0.13093 0.156874,-0.23807 0.256225,-0.33988 0.01037,-0.0104 0.06313,-0.0643 0.07787,-0.0763 0.0099,-0.008 0.04253,-0.0283 0.03202,-0.021 -0.03708,0.0255 -0.0828,0.0414 -0.111705,0.0759 -0.0091,0.0109 0.02852,0.003 0.04197,0.007 0.0177,0.006 0.03373,0.0161 0.0506,0.0241 0.01823,0.0124 0.03834,0.0225 0.0547,0.0373 0.0813,0.0736 0.146431,0.19268 0.179721,0.29633 0.0076,0.0237 0.01201,0.0483 0.01799,0.0724 0.02421,0.1255 -0.008,0.2478 -0.03872,0.36871 -0.01466,0.062 -0.04173,0.13032 -0.04658,0.19414 -7.94e-4,0.0106 2.56e-4,0.0212 2.64e-4,0.0318 0.01659,0.11264 0.09663,0.17766 0.183126,0.2418 0.08604,0.0525 0.180073,0.0863 0.282292,0.0782 0.08373,-0.007 0.111858,-0.0217 0.193329,-0.0486 0.198022,-0.0891 0.384251,-0.20526 0.539427,-0.35772 0.08274,-0.0813 0.101962,-0.10925 0.176017,-0.19876 0.10116,-0.13109 0.18806,-0.27264 0.26109,-0.42116 0.032,-0.0651 0.04656,-0.10047 0.07474,-0.16529 0,0 -0.147415,0.0678 -0.147415,0.0678 v 0 c -0.02646,0.0639 -0.03968,0.0981 -0.0705,0.16212 -0.07109,0.14756 -0.1578,0.28724 -0.258672,0.41632 -0.02865,0.0341 -0.05616,0.0691 -0.08597,0.10223 -0.0564,0.0626 -0.122589,0.12742 -0.187886,0.18084 -0.03257,0.0267 -0.06978,0.0475 -0.101169,0.0755 -0.0076,0.007 0.0375,-0.0156 0.02858,-0.0107 -0.03383,0.0186 -0.06901,0.0345 -0.10351,0.0518 -0.07918,0.0273 -0.104953,0.0418 -0.186352,0.05 -0.09917,0.01 -0.190344,-0.0199 -0.27409,-0.0713 -0.06,-0.0442 -0.120406,-0.0911 -0.153088,-0.16052 -0.01318,-0.028 -0.01299,-0.0414 -0.01699,-0.0705 0.0016,-0.0754 0.02617,-0.14783 0.04428,-0.22053 0.02943,-0.12302 0.05878,-0.24761 0.03141,-0.37423 -0.0067,-0.0245 -0.01193,-0.0495 -0.02019,-0.0735 -0.02892,-0.0843 -0.07288,-0.16398 -0.125327,-0.2358 -0.01773,-0.0243 -0.03537,-0.0489 -0.05671,-0.0701 -0.01601,-0.0159 -0.03631,-0.0268 -0.05446,-0.0401 -0.0077,-0.004 -0.07835,-0.0487 -0.09594,-0.0429 -0.148264,0.049 -0.194164,0.0901 -0.286057,0.18749 -0.09907,0.10478 -0.196871,0.21431 -0.256884,0.34705 -0.03005,0.0739 -0.05323,0.14981 -0.07237,0.22725 0,0 0.158046,-0.0755 0.158046,-0.0755 z"
       id="path939"
       style="fill:#000000;fill-opacity:1;stroke:#f31d93;stroke-width:0.1;stroke-linejoin:bevel;stroke-miterlimit:4;stroke-dasharray:none;stroke-dashoffset:0;stroke-opacity:0.760098" />
    <path
       d="m 56.92455,169.51399 c 0.08673,-0.0907 0.171263,-0.18336 0.255337,-0.27651 0.11666,-0.13439 0.236474,-0.26593 0.359227,-0.39476 0.0525,-0.0564 0.109911,-0.10833 0.159975,-0.16699 0.03003,-0.0313 0.05702,-0.0655 0.08423,-0.0992 0,0 -0.158477,0.0676 -0.158477,0.0676 v 0 c -0.0276,0.0338 -0.05537,0.0675 -0.08541,0.0991 -0.04908,0.056 -0.101666,0.10865 -0.152442,0.16306 -0.120058,0.12925 -0.237517,0.26085 -0.354362,0.39301 -0.08794,0.096 -0.176692,0.19117 -0.26982,0.28217 0,0 0.161737,-0.0675 0.161737,-0.0675 z"
       id="path941"
       style="fill:#000000;fill-opacity:1;stroke:#f31d93;stroke-width:0.1;stroke-linejoin:bevel;stroke-miterlimit:4;stroke-dasharray:none;stroke-dashoffset:0;stroke-opacity:0.760098" />
    <path
       d="m 57.826282,167.31336 c 0.0058,-0.004 0.01156,-0.009 0.01754,-0.0127 0.0078,-0.005 0.01572,-0.01 0.02365,-0.0149 0.0088,-0.005 0.03559,-0.0213 0.02667,-0.016 -0.217107,0.12808 -0.137584,0.0744 -0.08682,0.0567 0.0105,-0.004 0.02146,-0.006 0.03217,-0.009 0.05913,-0.004 0.125013,0.002 0.170878,0.044 0.0076,0.007 0.01368,0.0154 0.02053,0.0231 0.02964,0.0471 0.04151,0.10305 0.03222,0.15821 -0.0016,0.01 -0.005,0.0191 -0.0076,0.0287 -0.0084,0.0245 -0.02117,0.0468 -0.04027,0.0646 -0.03681,0.0342 -0.180676,0.11145 0.08187,-0.0433 -0.09119,0.0415 -0.133575,0.0495 -0.234717,0.12176 -0.005,0.004 0.0056,0.011 0.0084,0.0165 0.0052,0.003 0.01024,0.007 0.01569,0.01 0.01431,0.007 0.02963,0.0125 0.04397,0.0198 0.03555,0.018 0.06804,0.039 0.100563,0.0619 0.03993,0.0298 0.07802,0.0638 0.101624,0.10842 0.0051,0.01 0.01746,0.0199 0.01296,0.0297 -0.008,0.0176 -0.02927,0.0254 -0.04391,0.0381 -0.09234,0.058 -0.100605,0.0646 -0.02803,0.0149 0,0 -0.124037,0.0995 -0.124037,0.0995 v 0 c 0.253405,-0.14045 0.154413,-0.0767 0.304657,-0.17874 0.01344,-0.0192 0.03381,-0.0352 0.04036,-0.0577 0.0032,-0.0112 -0.0088,-0.0215 -0.01439,-0.0317 -0.02513,-0.0462 -0.06467,-0.082 -0.106053,-0.11341 -0.0413,-0.03 -0.09427,-0.0685 -0.142113,-0.0873 -0.0028,-0.001 -0.006,-0.001 -0.0089,-0.002 0.02357,0.0602 0.0049,0.004 -0.141949,0.0904 -0.0044,0.003 0.0096,-0.004 0.01434,-0.005 0.0226,-0.008 0.04551,-0.0161 0.06726,-0.0266 0.05689,-0.0327 0.114242,-0.0645 0.170659,-0.098 0.03955,-0.0235 0.06468,-0.0623 0.0767,-0.1058 0.01434,-0.0746 0.0076,-0.13501 -0.03266,-0.2009 -0.0075,-0.009 -0.0141,-0.0181 -0.02238,-0.026 -0.04842,-0.0462 -0.115949,-0.0537 -0.179748,-0.0565 -0.01116,0.002 -0.02254,0.004 -0.03352,0.007 -0.10246,0.0296 -0.188163,0.10088 -0.278519,0.15577 0,0 0.162918,-0.0632 0.162918,-0.0632 z"
       id="path943"
       style="fill:#000000;fill-opacity:1;stroke:#f31d93;stroke-width:0.1;stroke-linejoin:bevel;stroke-miterlimit:4;stroke-dasharray:none;stroke-dashoffset:0;stroke-opacity:0.760098" />
    <path
       d="m 58.755845,167.03539 c 0.09886,0.009 0.198621,0.0181 0.295477,0.0407 0.02212,0.008 0.03512,0.0105 0.05209,0.0277 0.04261,0.0433 0.0471,0.12753 0.05599,0.18335 0.01805,0.17409 0.03797,0.348 0.0549,0.52221 0.01069,0.11458 0.01521,0.23 0.0086,0.34496 -0.0042,0.0736 -0.01058,0.12895 -0.01797,0.20288 -0.03577,0.28122 -0.0562,0.56376 -0.07008,0.8468 -0.0061,0.21713 -0.01884,0.43431 -0.01902,0.65157 0.0011,0.0829 0.0049,0.16567 0.0072,0.24851 2.64e-4,0.0394 0.0016,0.0787 0.0026,0.11798 1.38e-4,0.006 7.94e-4,0.042 -0.0011,0.0502 -0.0011,0.005 -0.0046,0.009 -0.0069,0.0135 -0.07453,0.02 0.08209,-0.0192 0.06863,-0.0688 -0.0093,-0.0341 -0.07058,0.005 -0.105934,0.007 -0.199413,0.009 -0.399341,0.01 -0.59891,0.0116 -0.222727,0.002 -0.445445,-2.5e-4 -0.668155,-0.003 0,0 -0.114882,0.0834 -0.114882,0.0834 v 0 c 0.224869,-0.002 0.449746,-0.003 0.674624,-0.002 0.144653,8e-4 0.289303,0.002 0.433956,0.003 0.04852,2.6e-4 0.09705,5.3e-4 0.145574,1.4e-4 0.11916,-7.9e-4 0.229378,0.002 0.322794,-0.10593 0.0049,-0.0233 0.0033,-0.0441 0.0019,-0.0679 -0.0027,-0.0497 -0.0019,-0.0217 -0.0024,-0.0756 -1.67e-4,-0.0139 -2.65e-4,-0.0278 -5.29e-4,-0.0417 -0.0016,-0.0822 -0.0068,-0.16416 -0.01146,-0.24622 -0.0072,-0.21445 -0.0021,-0.42918 0.0055,-0.64355 0.0061,-0.12694 0.0077,-0.17826 0.01744,-0.30528 0.01095,-0.1426 0.02784,-0.28421 0.04566,-0.42607 0.0049,-0.0394 0.0098,-0.0789 0.01468,-0.11832 0.0077,-0.0692 0.01601,-0.13584 0.0204,-0.20531 0.0074,-0.11565 0.0016,-0.23173 -0.0097,-0.34691 -0.01786,-0.17483 -0.03773,-0.34946 -0.05181,-0.52465 -0.0092,-0.0699 -0.01212,-0.17825 -0.08258,-0.21853 -0.0098,-0.006 -0.02101,-0.008 -0.03151,-0.0123 -0.09654,-0.0225 -0.196236,-0.027 -0.293733,-0.0446 0,0 -0.141544,0.10066 -0.141544,0.10066 z"
       id="path945"
       style="fill:#000000;fill-opacity:1;stroke:#f31d93;stroke-width:0.1;stroke-linejoin:bevel;stroke-miterlimit:4;stroke-dasharray:none;stroke-dashoffset:0;stroke-opacity:0.760098" />
    <path
       d="m 60.284203,169.04513 c -0.146598,0.0728 -0.291597,0.15043 -0.425027,0.24563 -0.07785,0.0575 -0.144483,0.13102 -0.184314,0.22011 -0.0058,0.013 -0.0098,0.0268 -0.01468,0.0402 -0.0055,0.03 -0.02326,0.0776 0.0039,0.10362 0.0182,0.0175 0.03264,0.0147 0.05685,0.0178 0.01511,-0.001 0.03038,-0.002 0.04533,-0.004 0.03775,-0.007 0.08752,-0.0215 0.120827,-0.0392 0.09823,-0.0522 0.191603,-0.0964 0.271108,-0.17164 0.0222,-0.021 0.04161,-0.0448 0.06241,-0.0672 0.146955,-0.18522 0.232635,-0.40766 0.317198,-0.62596 0.0761,-0.19947 0.141714,-0.40245 0.19743,-0.60849 0.01685,-0.0627 0.03261,-0.1257 0.05138,-0.18786 0.0064,-0.0213 0.01389,-0.0551 0.02737,-0.0745 -0.05439,0.0307 -0.11331,0.0545 -0.163161,0.0921 -0.01048,0.008 -0.0062,0.0256 -0.0096,0.0383 -0.0054,0.0203 -0.01109,0.0406 -0.01688,0.0608 -0.02817,0.0984 -0.05913,0.19594 -0.08865,0.29391 -0.05983,0.19838 -0.121121,0.39631 -0.180996,0.59467 -0.03725,0.1173 -0.06293,0.23766 -0.08127,0.35922 -0.0021,0.033 -0.02143,0.0921 0.0084,0.11833 0.02175,0.0191 0.04325,0.0184 0.07072,0.0234 0.101647,-7.9e-4 0.202374,-0.029 0.293888,-0.0727 0.08301,-0.0397 0.250886,-0.15382 0.293524,-0.18116 0.136212,-0.11952 0.242414,-0.26735 0.348448,-0.413 0.03211,-0.0371 0.05222,-0.0887 0.0918,-0.11972 0.005,-0.004 0.02193,-0.0127 0.01656,-0.009 -0.04345,0.0274 -0.08724,0.0542 -0.130858,0.0813 0.0075,7.9e-4 0.01521,2.6e-4 0.02249,0.002 0.07167,0.0194 0.108463,0.10037 0.138752,0.1602 0.03981,0.0828 0.05034,0.17339 0.06572,0.26258 0.0063,0.0371 0.01185,0.0779 0.0394,0.10645 0.02397,0.0249 0.04521,0.0323 0.07615,0.0487 0.02178,0.008 0.04315,0.0165 0.06532,0.0229 0.09987,0.0288 0.236085,0.0524 0.339955,0.0458 0.02405,-0.002 0.04768,-0.007 0.07152,-0.0105 0.120439,-0.045 0.105529,-0.0349 0.266293,-0.14665 0.0317,-0.022 0.10296,-0.10901 0.124452,-0.13541 0.03238,-0.0398 0.09223,-0.11834 0.123806,-0.15948 0.01728,-0.0233 0.03455,-0.0465 0.05183,-0.0697 0,0 -0.148357,0.0641 -0.148357,0.0641 v 0 c -0.01662,0.0228 -0.03321,0.0457 -0.04982,0.0685 -0.06089,0.0796 -0.120483,0.16165 -0.190714,0.2335 -0.02011,0.0206 -0.08226,0.0364 -0.06364,0.0583 0.01921,0.0226 0.05549,-0.0223 0.07995,-0.0391 0.01879,-0.0129 -0.04181,0.0182 -0.06271,0.0273 -0.02368,0.005 -0.04706,0.0112 -0.07106,0.0135 -0.105934,0.0104 -0.23337,-0.0118 -0.334777,-0.0425 -0.02085,-0.006 -0.04086,-0.0151 -0.0613,-0.0226 -0.02492,-0.0135 -0.04866,-0.0232 -0.06854,-0.0437 -0.02561,-0.0265 -0.02963,-0.0656 -0.03678,-0.0997 -0.0087,-0.0455 -0.0046,-0.0218 -0.01233,-0.0712 -0.01244,-0.0665 -0.03295,-0.13133 -0.05932,-0.19358 -0.02886,-0.0585 -0.0587,-0.12203 -0.113561,-0.16124 -0.02016,-0.0144 -0.03121,-0.0159 -0.05359,-0.0225 -0.05664,0.0287 -0.113927,0.0562 -0.169913,0.0862 -0.0094,0.005 -0.02296,0.0221 -0.02883,0.0297 -0.02495,0.0324 -0.04573,0.0678 -0.06923,0.10122 -0.102212,0.1458 -0.208569,0.29111 -0.345779,0.40641 0.02013,-0.008 0.07409,-0.0401 0.06043,-0.0233 -0.01918,0.0235 -0.05154,0.0321 -0.07866,0.0457 -0.08738,0.0436 -0.183906,0.0714 -0.281609,0.0748 -0.01738,-0.002 -0.04394,-0.002 -0.06025,-0.0135 -0.02291,-0.0155 -0.0071,-0.0829 -0.0064,-0.105 0.01577,-0.11997 0.04209,-0.23815 0.0764,-0.3542 0.05656,-0.19779 0.115025,-0.39507 0.175326,-0.59174 0.03168,-0.0996 0.06468,-0.19881 0.09737,-0.29813 0.0069,-0.0209 0.01381,-0.0419 0.02069,-0.0629 0.0044,-0.0134 0.02716,-0.0419 0.01315,-0.0403 -0.05418,0.006 -0.102346,0.0378 -0.15352,0.0568 -5.29e-4,0.0171 -0.0149,0.0585 -0.01855,0.0722 -0.0164,0.0617 -0.03153,0.12379 -0.0467,0.18583 -0.05241,0.20449 -0.115306,0.40593 -0.190545,0.60327 -0.08545,0.2186 -0.174181,0.44081 -0.32602,0.62312 -0.02151,0.0219 -0.04163,0.0453 -0.06456,0.0657 -0.02103,0.0187 -0.08604,0.0308 -0.06695,0.0515 0.01955,0.0212 0.05651,-0.0205 0.07562,-0.0421 0.01474,-0.0167 -0.04048,0.0187 -0.06148,0.0261 -0.01725,0.006 -0.03509,0.0104 -0.053,0.0141 -0.01376,0.003 -0.02785,0.004 -0.04177,0.005 -0.01061,-6e-5 -0.03445,0.003 -0.04582,-0.005 -0.02172,-0.0153 -0.0041,-0.0692 -5.3e-4,-0.0878 0.0048,-0.0126 0.0089,-0.0255 0.01455,-0.0377 0.04033,-0.0865 0.107268,-0.15615 0.183981,-0.21147 0.0768,-0.0532 0.08329,-0.0549 -0.02765,0.007 -0.01791,0.01 0.0359,-0.0199 0.05403,-0.0295 0.01349,-0.007 0.06755,-0.0344 0.08468,-0.0428 0.0079,-0.004 0.0159,-0.008 0.02387,-0.0115 0,0 0.136758,-0.10877 0.136758,-0.10877 z"
       id="path947"
       style="fill:#000000;fill-opacity:1;stroke:#f31d93;stroke-width:0.1;stroke-linejoin:bevel;stroke-miterlimit:4;stroke-dasharray:none;stroke-dashoffset:0;stroke-opacity:0.760098" />
    <path
       d="m 61.452167,169.3986 c 0.01188,-0.0148 0.02334,-0.03 0.0356,-0.0445 0.0329,-0.0389 0.09994,-0.11265 0.130979,-0.14777 0.09556,-0.10811 0.189696,-0.2175 0.284038,-0.32667 0.117055,-0.13378 0.233109,-0.26844 0.347449,-0.40455 0,0 -0.152448,0.0649 -0.152448,0.0649 v 0 c -0.107945,0.13509 -0.218792,0.26786 -0.332817,0.39787 -0.154532,0.17808 -0.312248,0.35321 -0.471088,0.52742 0,0 0.158285,-0.0667 0.158285,-0.0667 z"
       id="path949"
       style="fill:#000000;fill-opacity:1;stroke:#f31d93;stroke-width:0.1;stroke-linejoin:bevel;stroke-miterlimit:4;stroke-dasharray:none;stroke-dashoffset:0;stroke-opacity:0.760098" />
  </g>
</svg>
